# 3ds Max Wavefront OBJ Exporter v0.97b - (c)2007 guruware
# File Created: 27.07.2019 16:39:40

#
# object level01_wall003
#

v  0.0000 225.0000 -10.1250
v  0.0000 225.0000 -289.8750
v  0.0000 300.0000 -289.8750
v  0.0000 300.0000 -10.1250
v  -6.5132 150.0000 -10.1250
v  -6.5132 150.0000 -289.8750
v  -6.5131 225.0000 -289.8750
v  -6.5131 225.0000 -10.1250
v  0.0000 300.0000 -0.0000
v  0.0000 225.0000 -0.0000
v  0.0000 75.0000 -0.0000
v  0.0000 -0.0000 -0.0000
v  0.0000 -0.0000 -10.1250
v  0.0000 75.0000 -10.1250
v  0.0000 75.0000 -289.8750
v  -6.5132 75.0000 -289.8750
v  -6.5132 75.0000 -10.1250
v  0.0000 150.0000 -0.0000
v  0.0000 150.0000 -10.1250
v  23.2773 168.7784 -97.1689
v  -12.9158 168.7784 -97.1689
v  -12.9158 138.6096 -97.1689
v  23.2773 138.6096 -97.1689
v  12.4294 300.0000 -97.1689
v  -12.9158 300.0000 -97.1689
v  -12.9158 259.2449 -97.1689
v  12.4294 259.2449 -97.1689
v  -12.9158 188.8776 -97.1689
v  23.2773 188.8776 -97.1689
v  -12.9158 -0.0000 -97.1689
v  12.4294 -0.0000 -97.1689
v  12.4294 48.1431 -97.1689
v  -12.9158 48.1431 -97.1689
v  -12.9158 118.5104 -97.1689
v  23.2773 118.5104 -97.1689
v  12.4294 -0.0000 -123.5845
v  12.4294 48.1431 -123.5845
v  23.2773 118.5104 -123.5845
v  23.2773 138.6096 -123.5845
v  23.2773 168.7784 -123.5845
v  12.4294 259.2449 -123.5845
v  12.4294 300.0000 -123.5845
v  23.2773 188.8776 -123.5845
v  12.4294 -0.0000 -176.4155
v  12.4294 48.1431 -176.4155
v  16.4213 138.6096 -123.5845
v  16.4213 168.7784 -123.5845
v  0.0000 -0.0000 -289.8750
v  0.0000 225.0000 -300.0000
v  0.0000 300.0000 -300.0000
v  0.0000 -0.0000 -300.0000
v  0.0000 75.0000 -300.0000
v  0.0000 150.0000 -289.8750
v  0.0000 150.0000 -300.0000
v  -12.9158 138.6096 -202.8310
v  -12.9158 168.7784 -202.8310
v  23.2773 168.7784 -202.8310
v  23.2773 138.6096 -202.8310
v  16.4213 168.7784 -176.4155
v  16.4213 138.6096 -176.4155
v  -12.9158 259.2449 -202.8310
v  -12.9158 300.0000 -202.8310
v  12.4294 300.0000 -202.8310
v  12.4294 259.2449 -202.8310
v  -12.9158 188.8776 -202.8310
v  23.2773 188.8776 -202.8310
v  12.4294 48.1431 -202.8310
v  12.4294 -0.0000 -202.8310
v  -12.9158 -0.0000 -202.8310
v  -12.9158 48.1431 -202.8310
v  -12.9158 118.5104 -202.8310
v  23.2773 118.5104 -202.8310
v  12.4294 300.0000 -176.4155
v  12.4294 259.2449 -176.4155
v  23.2773 188.8776 -176.4155
v  23.2773 118.5104 -176.4155
v  23.2773 168.7784 -176.4155
v  23.2773 138.6096 -176.4155
# 78 vertices

vn 0.9045 -0.3015 -0.3015
vn 0.9045 -0.3015 0.3015
vn 1.0000 0.0000 -0.0000
vn 0.7071 -0.0000 -0.7071
vn 0.7071 -0.0000 0.7071
vn 0.5774 -0.5774 0.5774
vn 0.5774 -0.5774 -0.5774
vn 0.9045 0.3015 -0.3015
vn 0.9045 0.3015 0.3015
vn 0.5774 0.5774 0.5774
vn 0.5774 0.5774 -0.5774
vn 0.7071 0.0000 -0.7071
vn 0.7071 0.0000 0.7071
vn 0.0000 0.0000 1.0000
vn 0.6870 0.0526 0.7247
vn 0.7214 0.0553 0.6903
vn 0.6870 -0.0526 0.7247
vn 0.7214 -0.0553 0.6903
vn 0.9971 -0.0764 -0.0000
vn 0.9971 0.0764 -0.0000
vn 0.0000 0.0000 -1.0000
vn 0.6870 0.0526 -0.7247
vn 0.7214 0.0553 -0.6903
vn 0.6870 -0.0526 -0.7247
vn 0.7214 -0.0553 -0.6903
# 25 vertex normals

vt 0.3698 0.9162 0.0000
vt 0.6596 0.9162 0.0000
vt 0.6596 0.9939 0.0000
vt 0.3698 0.9939 0.0000
vt 0.3698 0.8318 0.0000
vt 0.6596 0.8318 0.0000
vt 0.6596 0.9095 0.0000
vt 0.3698 0.9095 0.0000
vt 0.3593 0.9939 0.0000
vt 0.3593 0.9162 0.0000
vt 0.3593 0.7473 0.0000
vt 0.3593 0.6697 0.0000
vt 0.3698 0.6697 0.0000
vt 0.3698 0.7473 0.0000
vt 0.6596 0.7473 0.0000
vt 0.6596 0.7541 0.0000
vt 0.3698 0.7541 0.0000
vt 0.3526 0.9095 0.0000
vt 0.3526 0.8318 0.0000
vt 0.3631 0.8318 0.0000
vt 0.3631 0.9095 0.0000
vt 0.3526 0.7541 0.0000
vt 0.3631 0.7541 0.0000
vt 0.8025 0.2460 0.0000
vt 0.7591 0.2460 0.0000
vt 0.7591 0.2027 0.0000
vt 0.8025 0.2027 0.0000
vt 0.8025 0.4333 0.0000
vt 0.7591 0.4333 0.0000
vt 0.7591 0.3758 0.0000
vt 0.8025 0.3758 0.0000
vt 0.7591 0.2752 0.0000
vt 0.8025 0.2752 0.0000
vt 0.7591 0.0050 0.0000
vt 0.8025 0.0050 0.0000
vt 0.8025 0.0730 0.0000
vt 0.7591 0.0730 0.0000
vt 0.7591 0.1735 0.0000
vt 0.8025 0.1735 0.0000
vt 0.8398 0.0050 0.0000
vt 0.8398 0.0730 0.0000
vt 0.8398 0.1735 0.0000
vt 0.8398 0.2027 0.0000
vt 0.8398 0.2460 0.0000
vt 0.8398 0.3758 0.0000
vt 0.8398 0.4333 0.0000
vt 0.8398 0.2752 0.0000
vt 0.9144 0.0050 0.0000
vt 0.9144 0.0730 0.0000
vt 0.0118 0.7687 0.0000
vt 0.0219 0.7687 0.0000
vt 0.0219 0.8132 0.0000
vt 0.0118 0.8132 0.0000
vt 0.6596 0.6697 0.0000
vt 0.6701 0.9162 0.0000
vt 0.6701 0.9939 0.0000
vt 0.6701 0.6697 0.0000
vt 0.6701 0.7473 0.0000
vt 0.6663 0.8318 0.0000
vt 0.6768 0.8318 0.0000
vt 0.6768 0.9095 0.0000
vt 0.6663 0.9095 0.0000
vt 0.6663 0.7541 0.0000
vt 0.6768 0.7541 0.0000
vt 0.9951 0.2027 0.0000
vt 0.9951 0.2460 0.0000
vt 0.9517 0.2460 0.0000
vt 0.9517 0.2027 0.0000
vt 0.0997 0.8132 0.0000
vt 0.0997 0.7687 0.0000
vt 0.9951 0.3758 0.0000
vt 0.9951 0.4333 0.0000
vt 0.9517 0.4333 0.0000
vt 0.9517 0.3758 0.0000
vt 0.9951 0.2752 0.0000
vt 0.9517 0.2752 0.0000
vt 0.9517 0.0730 0.0000
vt 0.9517 0.0050 0.0000
vt 0.9951 0.0050 0.0000
vt 0.9951 0.0730 0.0000
vt 0.9951 0.1735 0.0000
vt 0.9517 0.1735 0.0000
vt 0.9144 0.4333 0.0000
vt 0.9144 0.3758 0.0000
vt 0.9144 0.2752 0.0000
vt 0.9144 0.1735 0.0000
vt 0.9144 0.2460 0.0000
vt 0.9144 0.2027 0.0000
vt 0.0997 0.8233 0.0000
vt 0.0219 0.8233 0.0000
vt 0.1099 0.7687 0.0000
vt 0.1099 0.8132 0.0000
vt 0.0219 0.7586 0.0000
vt 0.0997 0.7586 0.0000
# 94 texture coords

o level01_wall003
g level01_wall003
s off
f 1/1/1 2/2/2 3/3/3 4/4/3 
f 5/5/4 6/6/5 7/7/6 8/8/7 
f 8/8/7 7/7/6 2/2/2 1/1/1 
f 9/9/3 10/10/3 1/1/1 4/4/3 
f 11/11/3 12/12/3 13/13/3 14/14/8 
f 15/15/9 16/16/10 17/17/11 14/14/8 
f 10/18/3 18/19/3 19/20/12 1/21/1 
f 18/19/3 11/22/3 14/23/8 19/20/12 
f 1/21/1 19/20/12 5/5/4 8/8/7 
f 19/20/12 14/23/8 17/17/11 5/5/4 
f 20/24/13 21/25/14 22/26/14 23/27/13 
f 24/28/13 25/29/14 26/30/14 27/31/15 
f 27/31/15 26/30/14 28/32/14 29/33/16 
f 30/34/14 31/35/13 32/36/17 33/37/14 
f 34/38/14 33/37/14 32/36/17 35/39/18 
f 31/35/13 36/40/3 37/41/19 32/36/17 
f 32/36/17 37/41/19 38/42/19 35/39/18 
f 29/33/16 28/32/14 21/25/14 20/24/13 
f 34/38/14 35/39/18 23/27/13 22/26/14 
f 35/39/18 38/42/19 39/43/8 23/27/13 
f 20/24/13 23/27/13 39/43/8 40/44/1 
f 24/28/13 27/31/15 41/45/20 42/46/3 
f 27/31/15 29/33/16 43/47/20 41/45/20 
f 44/48/3 45/49/19 37/41/19 36/40/3 
f 29/33/16 20/24/13 40/44/1 43/47/20 
f 39/50/8 46/51/11 47/52/7 40/53/1 
f 5/5/4 17/17/11 16/16/10 6/6/5 
f 14/14/8 13/13/3 48/54/3 15/15/9 
f 2/2/2 49/55/3 50/56/3 3/3/3 
f 48/54/3 51/57/3 52/58/3 15/15/9 
f 53/59/13 54/60/3 49/61/3 2/62/2 
f 15/63/9 52/64/3 54/60/3 53/59/13 
f 6/6/5 53/59/13 2/62/2 7/7/6 
f 16/16/10 15/63/9 53/59/13 6/6/5 
f 55/65/21 56/66/21 57/67/12 58/68/12 
f 59/69/6 47/52/7 46/51/11 60/70/10 
f 61/71/21 62/72/21 63/73/12 64/74/22 
f 65/75/21 61/71/21 64/74/22 66/76/23 
f 67/77/24 68/78/12 69/79/21 70/80/21 
f 71/81/21 72/82/25 67/77/24 70/80/21 
f 73/83/3 42/46/3 41/45/20 74/84/20 
f 74/84/20 41/45/20 43/47/20 75/85/20 
f 45/49/19 44/48/3 68/78/12 67/77/24 
f 76/86/19 45/49/19 67/77/24 72/82/25 
f 56/66/21 65/75/21 66/76/23 57/67/12 
f 58/68/12 72/82/25 71/81/21 55/65/21 
f 75/85/20 43/47/20 40/44/1 77/87/2 
f 78/88/9 76/86/19 72/82/25 58/68/12 
f 78/88/9 58/68/12 57/67/12 77/87/2 
f 74/84/20 64/74/22 63/73/12 73/83/3 
f 75/85/20 66/76/23 64/74/22 74/84/20 
f 76/86/19 38/42/19 37/41/19 45/49/19 
f 77/87/2 57/67/12 66/76/23 75/85/20 
f 78/88/9 39/43/8 38/42/19 76/86/19 
f 47/52/7 59/69/6 77/89/2 40/90/1 
f 59/69/6 60/70/10 78/91/9 77/92/2 
f 60/70/10 46/51/11 39/93/8 78/94/9 
# 57 polygons

