# 3ds Max Wavefront OBJ Exporter v0.97b - (c)2007 guruware
# File Created: 27.07.2019 17:50:51

#
# object level01_pillar
#

v  -0.0000 -0.0000 1.5681
v  -0.0000 1.5305 1.3831
v  -0.9780 1.5305 0.9780
v  -1.1088 -0.0000 1.1088
v  1.1088 -0.0000 1.1088
v  0.9780 1.5305 0.9780
v  1.5681 -0.0000 -0.0000
v  1.3831 1.5305 -0.0000
v  1.1088 -0.0000 -1.1088
v  0.9780 1.5305 -0.9780
v  -0.0000 -0.0000 -1.5681
v  -0.0000 1.5305 -1.3831
v  -1.1088 -0.0000 -1.1088
v  -0.9780 1.5305 -0.9780
v  -1.5681 -0.0000 -0.0000
v  -1.3831 1.5305 -0.0000
v  -0.0000 1.5305 1.2381
v  -0.0000 2.2397 1.2381
v  -0.8755 2.2397 0.8755
v  -0.8755 1.5305 0.8755
v  0.8755 1.5305 0.8755
v  0.8755 2.2397 0.8755
v  1.2381 1.5305 -0.0000
v  1.2381 2.2397 -0.0000
v  0.8755 1.5305 -0.8755
v  0.8755 2.2397 -0.8755
v  -0.0000 1.5305 -1.2381
v  -0.0000 2.2397 -1.2381
v  -0.8755 1.5305 -0.8755
v  -0.8755 2.2397 -0.8755
v  -1.2381 1.5305 -0.0000
v  -1.2381 2.2397 -0.0000
v  -0.0000 2.2397 1.3831
v  -0.0000 2.9489 1.3831
v  -0.9780 2.9489 0.9780
v  -0.9780 2.2397 0.9780
v  0.9780 2.2397 0.9780
v  0.9780 2.9489 0.9780
v  1.3831 2.2397 -0.0000
v  1.3831 2.9489 -0.0000
v  0.9780 2.2397 -0.9780
v  0.9780 2.9489 -0.9780
v  -0.0000 2.2397 -1.3831
v  -0.0000 2.9489 -1.3831
v  -0.9780 2.2397 -0.9780
v  -0.9780 2.9489 -0.9780
v  -1.3831 2.2397 -0.0000
v  -1.3831 2.9489 -0.0000
v  -0.0000 2.9489 1.2381
v  -0.0000 3.6581 1.2381
v  -0.8755 3.6581 0.8755
v  -0.8755 2.9489 0.8755
v  0.8755 2.9489 0.8755
v  0.8755 3.6581 0.8755
v  1.2381 2.9489 -0.0000
v  1.2381 3.6581 -0.0000
v  0.8755 2.9489 -0.8755
v  0.8755 3.6581 -0.8755
v  -0.0000 2.9489 -1.2381
v  -0.0000 3.6581 -1.2381
v  -0.8755 2.9489 -0.8755
v  -0.8755 3.6581 -0.8755
v  -1.2381 2.9489 -0.0000
v  -1.2381 3.6581 -0.0000
v  -0.0000 3.6581 -1.3831
v  -0.0000 4.3673 -1.3831
v  0.9780 4.3673 -0.9780
v  0.9780 3.6581 -0.9780
v  -0.9780 3.6581 -0.9780
v  -0.9780 4.3673 -0.9780
v  -1.3831 3.6581 -0.0000
v  -1.3831 4.3673 -0.0000
v  -0.9780 3.6581 0.9780
v  -0.0000 3.6581 1.3831
v  1.3831 3.6581 -0.0000
v  0.9780 3.6581 0.9780
v  -0.9780 6.4949 0.9780
v  -0.0000 6.4949 1.3831
v  -0.0000 8.0253 1.5681
v  -1.1088 8.0253 1.1088
v  0.9780 6.4949 0.9780
v  1.1088 8.0253 1.1088
v  1.3831 6.4949 -0.0000
v  1.5681 8.0253 -0.0000
v  0.9780 6.4949 -0.9780
v  1.1088 8.0253 -1.1088
v  -0.0000 6.4949 -1.3831
v  -0.0000 8.0253 -1.5681
v  -0.9780 6.4949 -0.9780
v  -1.1088 8.0253 -1.1088
v  -1.3831 6.4949 -0.0000
v  -1.5681 8.0253 -0.0000
v  -0.8755 5.7857 0.8755
v  -0.0000 5.7857 1.2381
v  -0.0000 6.4949 1.2381
v  -0.8755 6.4949 0.8755
v  0.8755 5.7857 0.8755
v  0.8755 6.4949 0.8755
v  1.2381 5.7857 -0.0000
v  1.2381 6.4949 -0.0000
v  0.8755 5.7857 -0.8755
v  0.8755 6.4949 -0.8755
v  -0.0000 5.7857 -1.2381
v  -0.0000 6.4949 -1.2381
v  -0.8755 5.7857 -0.8755
v  -0.8755 6.4949 -0.8755
v  -1.2381 5.7857 -0.0000
v  -1.2381 6.4949 -0.0000
v  -0.9780 5.0765 0.9780
v  -0.0000 5.0765 1.3831
v  -0.0000 5.7857 1.3831
v  -0.9780 5.7857 0.9780
v  0.9780 5.0765 0.9780
v  0.9780 5.7857 0.9780
v  1.3831 5.0765 -0.0000
v  1.3831 5.7857 -0.0000
v  0.9780 5.0765 -0.9780
v  0.9780 5.7857 -0.9780
v  -0.0000 5.0765 -1.3831
v  -0.0000 5.7857 -1.3831
v  -0.9780 5.0765 -0.9780
v  -0.9780 5.7857 -0.9780
v  -1.3831 5.0765 -0.0000
v  -1.3831 5.7857 -0.0000
v  -0.8755 4.3673 0.8755
v  -0.0000 4.3673 1.2381
v  -0.0000 5.0765 1.2381
v  -0.8755 5.0765 0.8755
v  0.8755 4.3673 0.8755
v  0.8755 5.0765 0.8755
v  1.2381 4.3673 -0.0000
v  1.2381 5.0765 -0.0000
v  0.8755 4.3673 -0.8755
v  0.8755 5.0765 -0.8755
v  -0.0000 4.3673 -1.2381
v  -0.0000 5.0765 -1.2381
v  -0.8755 4.3673 -0.8755
v  -0.8755 5.0765 -0.8755
v  -1.2381 4.3673 -0.0000
v  -1.2381 5.0765 -0.0000
v  -0.0000 4.3673 1.3831
v  -0.9780 4.3673 0.9780
v  0.9780 4.3673 0.9780
v  1.3831 4.3673 -0.0000
# 144 vertices

vn 0.0000 -0.5846 0.8113
vn 0.0000 0.6748 0.7380
vn -0.5218 0.6748 0.5218
vn -0.5737 -0.5846 0.5737
vn 0.5737 -0.5846 0.5737
vn 0.5218 0.6748 0.5218
vn 0.8113 -0.5847 -0.0000
vn 0.7380 0.6748 -0.0000
vn 0.5737 -0.5846 -0.5737
vn 0.5218 0.6748 -0.5218
vn -0.0000 -0.5846 -0.8113
vn -0.0000 0.6748 -0.7380
vn -0.5737 -0.5846 -0.5737
vn -0.5218 0.6748 -0.5218
vn -0.8113 -0.5847 -0.0000
vn -0.7380 0.6748 -0.0000
vn -0.0000 0.8042 0.5944
vn -0.0000 -0.8042 0.5944
vn -0.4203 -0.8042 0.4203
vn -0.4203 0.8042 0.4203
vn 0.4203 0.8042 0.4203
vn 0.4203 -0.8042 0.4203
vn 0.5944 0.8042 -0.0000
vn 0.5944 -0.8042 -0.0000
vn 0.4203 0.8042 -0.4203
vn 0.4203 -0.8042 -0.4203
vn -0.0000 0.8042 -0.5944
vn -0.0000 -0.8042 -0.5944
vn -0.4203 0.8042 -0.4203
vn -0.4203 -0.8042 -0.4203
vn -0.5944 0.8042 0.0000
vn -0.5944 -0.8042 0.0000
vn 0.0000 -0.6303 0.7764
vn 0.0000 0.6303 0.7764
vn -0.5490 0.6303 0.5490
vn -0.5490 -0.6303 0.5490
vn 0.5490 -0.6303 0.5490
vn 0.5490 0.6303 0.5490
vn 0.7764 -0.6303 -0.0000
vn 0.7764 0.6303 -0.0000
vn 0.5490 -0.6303 -0.5490
vn 0.5490 0.6303 -0.5490
vn -0.0000 -0.6303 -0.7764
vn -0.0000 0.6303 -0.7764
vn -0.5490 -0.6303 -0.5490
vn -0.5490 0.6303 -0.5490
vn -0.7764 -0.6303 -0.0000
vn -0.7764 0.6303 -0.0000
vn -0.5218 -0.6748 0.5218
vn 0.0000 -0.6748 0.7380
vn 0.0000 0.5846 0.8113
vn -0.5737 0.5846 0.5737
vn 0.5218 -0.6748 0.5218
vn 0.5737 0.5846 0.5737
vn 0.7380 -0.6748 -0.0000
vn 0.8113 0.5847 -0.0000
vn 0.5218 -0.6748 -0.5218
vn 0.5737 0.5846 -0.5737
vn -0.0000 -0.6748 -0.7380
vn -0.0000 0.5846 -0.8113
vn -0.5218 -0.6748 -0.5218
vn -0.5737 0.5846 -0.5737
vn -0.7380 -0.6748 -0.0000
vn -0.8113 0.5847 -0.0000
# 64 vertex normals

vt 0.7607 0.6381 0.0000
vt 0.7607 0.6969 0.0000
vt 0.7215 0.6969 0.0000
vt 0.7215 0.6381 0.0000
vt 0.7998 0.6381 0.0000
vt 0.7998 0.6969 0.0000
vt 0.8390 0.6381 0.0000
vt 0.8390 0.6969 0.0000
vt 0.8781 0.6381 0.0000
vt 0.8781 0.6969 0.0000
vt 0.9173 0.6381 0.0000
vt 0.9173 0.6969 0.0000
vt 0.9564 0.6381 0.0000
vt 0.9564 0.6969 0.0000
vt 0.9956 0.6381 0.0000
vt 0.9956 0.6969 0.0000
vt 0.6823 0.6969 0.0000
vt 0.6823 0.6381 0.0000
vt 0.7607 0.7023 0.0000
vt 0.7607 0.7297 0.0000
vt 0.7215 0.7297 0.0000
vt 0.7215 0.7023 0.0000
vt 0.7998 0.7023 0.0000
vt 0.7998 0.7297 0.0000
vt 0.8390 0.7023 0.0000
vt 0.8390 0.7297 0.0000
vt 0.8781 0.7023 0.0000
vt 0.8781 0.7297 0.0000
vt 0.9173 0.7023 0.0000
vt 0.9173 0.7297 0.0000
vt 0.9564 0.7023 0.0000
vt 0.9564 0.7297 0.0000
vt 0.9956 0.7023 0.0000
vt 0.9956 0.7297 0.0000
vt 0.6823 0.7297 0.0000
vt 0.6823 0.7023 0.0000
vt 0.7607 0.7354 0.0000
vt 0.7607 0.7630 0.0000
vt 0.7215 0.7630 0.0000
vt 0.7215 0.7354 0.0000
vt 0.7998 0.7354 0.0000
vt 0.7998 0.7630 0.0000
vt 0.8390 0.7354 0.0000
vt 0.8390 0.7630 0.0000
vt 0.8781 0.7354 0.0000
vt 0.8781 0.7630 0.0000
vt 0.9173 0.7354 0.0000
vt 0.9173 0.7630 0.0000
vt 0.9564 0.7354 0.0000
vt 0.9564 0.7630 0.0000
vt 0.9956 0.7354 0.0000
vt 0.9956 0.7630 0.0000
vt 0.6823 0.7630 0.0000
vt 0.6823 0.7354 0.0000
vt 0.7607 0.7689 0.0000
vt 0.7607 0.7966 0.0000
vt 0.7215 0.7966 0.0000
vt 0.7215 0.7689 0.0000
vt 0.7998 0.7689 0.0000
vt 0.7998 0.7966 0.0000
vt 0.8390 0.7689 0.0000
vt 0.8390 0.7966 0.0000
vt 0.8781 0.7689 0.0000
vt 0.8781 0.7966 0.0000
vt 0.9173 0.7689 0.0000
vt 0.9173 0.7966 0.0000
vt 0.9564 0.7689 0.0000
vt 0.9564 0.7966 0.0000
vt 0.9956 0.7689 0.0000
vt 0.9956 0.7966 0.0000
vt 0.6823 0.7966 0.0000
vt 0.6823 0.7689 0.0000
vt 0.9173 0.8025 0.0000
vt 0.9173 0.8303 0.0000
vt 0.8781 0.8303 0.0000
vt 0.8781 0.8025 0.0000
vt 0.9564 0.8025 0.0000
vt 0.9564 0.8303 0.0000
vt 0.9956 0.8025 0.0000
vt 0.9956 0.8303 0.0000
vt 0.7215 0.8025 0.0000
vt 0.7607 0.8025 0.0000
vt 0.6823 0.8025 0.0000
vt 0.8390 0.8025 0.0000
vt 0.7998 0.8025 0.0000
vt 0.7215 0.9359 0.0000
vt 0.7607 0.9359 0.0000
vt 0.7607 0.9947 0.0000
vt 0.7215 0.9947 0.0000
vt 0.7998 0.9359 0.0000
vt 0.7998 0.9947 0.0000
vt 0.8390 0.9359 0.0000
vt 0.8390 0.9947 0.0000
vt 0.8781 0.9359 0.0000
vt 0.8781 0.9947 0.0000
vt 0.9173 0.9359 0.0000
vt 0.9173 0.9947 0.0000
vt 0.9564 0.9359 0.0000
vt 0.9564 0.9947 0.0000
vt 0.9956 0.9359 0.0000
vt 0.9956 0.9947 0.0000
vt 0.6823 0.9359 0.0000
vt 0.6823 0.9947 0.0000
vt 0.7215 0.9031 0.0000
vt 0.7607 0.9031 0.0000
vt 0.7607 0.9305 0.0000
vt 0.7215 0.9305 0.0000
vt 0.7998 0.9031 0.0000
vt 0.7998 0.9305 0.0000
vt 0.8390 0.9031 0.0000
vt 0.8390 0.9305 0.0000
vt 0.8781 0.9031 0.0000
vt 0.8781 0.9305 0.0000
vt 0.9173 0.9031 0.0000
vt 0.9173 0.9305 0.0000
vt 0.9564 0.9031 0.0000
vt 0.9564 0.9305 0.0000
vt 0.9956 0.9031 0.0000
vt 0.9956 0.9305 0.0000
vt 0.6823 0.9031 0.0000
vt 0.6823 0.9305 0.0000
vt 0.7215 0.8698 0.0000
vt 0.7607 0.8698 0.0000
vt 0.7607 0.8974 0.0000
vt 0.7215 0.8974 0.0000
vt 0.7998 0.8698 0.0000
vt 0.7998 0.8974 0.0000
vt 0.8390 0.8698 0.0000
vt 0.8390 0.8974 0.0000
vt 0.8781 0.8698 0.0000
vt 0.8781 0.8974 0.0000
vt 0.9173 0.8698 0.0000
vt 0.9173 0.8974 0.0000
vt 0.9564 0.8698 0.0000
vt 0.9564 0.8974 0.0000
vt 0.9956 0.8698 0.0000
vt 0.9956 0.8974 0.0000
vt 0.6823 0.8698 0.0000
vt 0.6823 0.8974 0.0000
vt 0.7215 0.8362 0.0000
vt 0.7607 0.8362 0.0000
vt 0.7607 0.8639 0.0000
vt 0.7215 0.8639 0.0000
vt 0.7998 0.8362 0.0000
vt 0.7998 0.8639 0.0000
vt 0.8390 0.8362 0.0000
vt 0.8390 0.8639 0.0000
vt 0.8781 0.8362 0.0000
vt 0.8781 0.8639 0.0000
vt 0.9173 0.8362 0.0000
vt 0.9173 0.8639 0.0000
vt 0.9564 0.8362 0.0000
vt 0.9564 0.8639 0.0000
vt 0.9956 0.8362 0.0000
vt 0.9956 0.8639 0.0000
vt 0.6823 0.8362 0.0000
vt 0.6823 0.8639 0.0000
vt 0.7607 0.8303 0.0000
vt 0.7215 0.8303 0.0000
vt 0.7998 0.8303 0.0000
vt 0.8390 0.8303 0.0000
vt 0.6823 0.8303 0.0000
vt 0.9076 0.6318 0.0000
vt 0.8672 0.6318 0.0000
vt 0.8386 0.6033 0.0000
vt 0.9362 0.6033 0.0000
vt 0.8386 0.5629 0.0000
vt 0.9362 0.5629 0.0000
vt 0.8672 0.5343 0.0000
vt 0.9076 0.5343 0.0000
vt 0.9184 0.4425 0.0000
vt 0.9588 0.4425 0.0000
vt 0.9874 0.4711 0.0000
vt 0.8898 0.4711 0.0000
vt 0.9874 0.5115 0.0000
vt 0.8898 0.5115 0.0000
vt 0.9588 0.5400 0.0000
vt 0.9184 0.5400 0.0000
# 178 texture coords

o level01_pillar
g level01_pillar
s off
f 1/1/1 2/2/2 3/3/3 4/4/4 
f 5/5/5 6/6/6 2/2/2 1/1/1 
f 7/7/7 8/8/8 6/6/6 5/5/5 
f 9/9/9 10/10/10 8/8/8 7/7/7 
f 11/11/11 12/12/12 10/10/10 9/9/9 
f 13/13/13 14/14/14 12/12/12 11/11/11 
f 15/15/15 16/16/16 14/14/14 13/13/13 
f 4/4/4 3/3/3 16/17/16 15/18/15 
f 17/19/17 18/20/18 19/21/19 20/22/20 
f 21/23/21 22/24/22 18/20/18 17/19/17 
f 23/25/23 24/26/24 22/24/22 21/23/21 
f 25/27/25 26/28/26 24/26/24 23/25/23 
f 27/29/27 28/30/28 26/28/26 25/27/25 
f 29/31/29 30/32/30 28/30/28 27/29/27 
f 31/33/31 32/34/32 30/32/30 29/31/29 
f 20/22/20 19/21/19 32/35/32 31/36/31 
f 33/37/33 34/38/34 35/39/35 36/40/36 
f 37/41/37 38/42/38 34/38/34 33/37/33 
f 39/43/39 40/44/40 38/42/38 37/41/37 
f 41/45/41 42/46/42 40/44/40 39/43/39 
f 43/47/43 44/48/44 42/46/42 41/45/41 
f 45/49/45 46/50/46 44/48/44 43/47/43 
f 47/51/47 48/52/48 46/50/46 45/49/45 
f 36/40/36 35/39/35 48/53/48 47/54/47 
f 49/55/17 50/56/18 51/57/19 52/58/20 
f 53/59/21 54/60/22 50/56/18 49/55/17 
f 55/61/23 56/62/24 54/60/22 53/59/21 
f 57/63/25 58/64/26 56/62/24 55/61/23 
f 59/65/27 60/66/28 58/64/26 57/63/25 
f 61/67/29 62/68/30 60/66/28 59/65/27 
f 63/69/31 64/70/32 62/68/30 61/67/29 
f 52/58/20 51/57/19 64/71/32 63/72/31 
f 65/73/43 66/74/44 67/75/42 68/76/41 
f 69/77/45 70/78/46 66/74/44 65/73/43 
f 71/79/47 72/80/48 70/78/46 69/77/45 
f 2/2/2 17/19/17 20/22/20 3/3/3 
f 6/6/6 21/23/21 17/19/17 2/2/2 
f 8/8/8 23/25/23 21/23/21 6/6/6 
f 10/10/10 25/27/25 23/25/23 8/8/8 
f 12/12/12 27/29/27 25/27/25 10/10/10 
f 14/14/14 29/31/29 27/29/27 12/12/12 
f 16/16/16 31/33/31 29/31/29 14/14/14 
f 3/3/3 20/22/20 31/36/31 16/17/16 
f 36/40/36 19/21/19 18/20/18 33/37/33 
f 47/54/47 32/35/32 19/21/19 36/40/36 
f 45/49/45 30/32/30 32/34/32 47/51/47 
f 43/47/43 28/30/28 30/32/30 45/49/45 
f 41/45/41 26/28/26 28/30/28 43/47/43 
f 39/43/39 24/26/24 26/28/26 41/45/41 
f 37/41/37 22/24/22 24/26/24 39/43/39 
f 33/37/33 18/20/18 22/24/22 37/41/37 
f 34/38/34 49/55/17 52/58/20 35/39/35 
f 38/42/38 53/59/21 49/55/17 34/38/34 
f 40/44/40 55/61/23 53/59/21 38/42/38 
f 42/46/42 57/63/25 55/61/23 40/44/40 
f 44/48/44 59/65/27 57/63/25 42/46/42 
f 46/50/46 61/67/29 59/65/27 44/48/44 
f 48/52/48 63/69/31 61/67/29 46/50/46 
f 35/39/35 52/58/20 63/72/31 48/53/48 
f 73/81/36 51/57/19 50/56/18 74/82/33 
f 71/83/47 64/71/32 51/57/19 73/81/36 
f 69/77/45 62/68/30 64/70/32 71/79/47 
f 65/73/43 60/66/28 62/68/30 69/77/45 
f 68/76/41 58/64/26 60/66/28 65/73/43 
f 75/84/39 56/62/24 58/64/26 68/76/41 
f 76/85/37 54/60/22 56/62/24 75/84/39 
f 74/82/33 50/56/18 54/60/22 76/85/37 
f 77/86/49 78/87/50 79/88/51 80/89/52 
f 78/87/50 81/90/53 82/91/54 79/88/51 
f 81/90/53 83/92/55 84/93/56 82/91/54 
f 83/92/55 85/94/57 86/95/58 84/93/56 
f 85/94/57 87/96/59 88/97/60 86/95/58 
f 87/96/59 89/98/61 90/99/62 88/97/60 
f 89/98/61 91/100/63 92/101/64 90/99/62 
f 91/102/63 77/86/49 80/89/52 92/103/64 
f 93/104/20 94/105/17 95/106/18 96/107/19 
f 94/105/17 97/108/21 98/109/22 95/106/18 
f 97/108/21 99/110/23 100/111/24 98/109/22 
f 99/110/23 101/112/25 102/113/26 100/111/24 
f 101/112/25 103/114/27 104/115/28 102/113/26 
f 103/114/27 105/116/29 106/117/30 104/115/28 
f 105/116/29 107/118/31 108/119/32 106/117/30 
f 107/120/31 93/104/20 96/107/19 108/121/32 
f 109/122/36 110/123/33 111/124/34 112/125/35 
f 110/123/33 113/126/37 114/127/38 111/124/34 
f 113/126/37 115/128/39 116/129/40 114/127/38 
f 115/128/39 117/130/41 118/131/42 116/129/40 
f 117/130/41 119/132/43 120/133/44 118/131/42 
f 119/132/43 121/134/45 122/135/46 120/133/44 
f 121/134/45 123/136/47 124/137/48 122/135/46 
f 123/138/47 109/122/36 112/125/35 124/139/48 
f 125/140/20 126/141/17 127/142/18 128/143/19 
f 126/141/17 129/144/21 130/145/22 127/142/18 
f 129/144/21 131/146/23 132/147/24 130/145/22 
f 131/146/23 133/148/25 134/149/26 132/147/24 
f 133/148/25 135/150/27 136/151/28 134/149/26 
f 135/150/27 137/152/29 138/153/30 136/151/28 
f 137/152/29 139/154/31 140/155/32 138/153/30 
f 139/156/31 125/140/20 128/143/19 140/157/32 
f 73/81/36 74/82/33 141/158/34 142/159/35 
f 74/82/33 76/85/37 143/160/38 141/158/34 
f 76/85/37 75/84/39 144/161/40 143/160/38 
f 75/84/39 68/76/41 67/75/42 144/161/40 
f 71/83/47 73/81/36 142/159/35 72/162/48 
f 96/107/19 95/106/18 78/87/50 77/86/49 
f 95/106/18 98/109/22 81/90/53 78/87/50 
f 98/109/22 100/111/24 83/92/55 81/90/53 
f 100/111/24 102/113/26 85/94/57 83/92/55 
f 102/113/26 104/115/28 87/96/59 85/94/57 
f 104/115/28 106/117/30 89/98/61 87/96/59 
f 106/117/30 108/119/32 91/100/63 89/98/61 
f 108/121/32 96/107/19 77/86/49 91/102/63 
f 94/105/17 93/104/20 112/125/35 111/124/34 
f 93/104/20 107/120/31 124/139/48 112/125/35 
f 107/118/31 105/116/29 122/135/46 124/137/48 
f 105/116/29 103/114/27 120/133/44 122/135/46 
f 103/114/27 101/112/25 118/131/42 120/133/44 
f 101/112/25 99/110/23 116/129/40 118/131/42 
f 99/110/23 97/108/21 114/127/38 116/129/40 
f 97/108/21 94/105/17 111/124/34 114/127/38 
f 128/143/19 127/142/18 110/123/33 109/122/36 
f 127/142/18 130/145/22 113/126/37 110/123/33 
f 130/145/22 132/147/24 115/128/39 113/126/37 
f 132/147/24 134/149/26 117/130/41 115/128/39 
f 134/149/26 136/151/28 119/132/43 117/130/41 
f 136/151/28 138/153/30 121/134/45 119/132/43 
f 138/153/30 140/155/32 123/136/47 121/134/45 
f 140/157/32 128/143/19 109/122/36 123/138/47 
f 126/141/17 125/140/20 142/159/35 141/158/34 
f 125/140/20 139/156/31 72/162/48 142/159/35 
f 139/154/31 137/152/29 70/78/46 72/80/48 
f 137/152/29 135/150/27 66/74/44 70/78/46 
f 135/150/27 133/148/25 67/75/42 66/74/44 
f 133/148/25 131/146/23 144/161/40 67/75/42 
f 131/146/23 129/144/21 143/160/38 144/161/40 
f 129/144/21 126/141/17 141/158/34 143/160/38 
f 88/163/60 90/164/62 92/165/64 86/166/58 
f 86/166/58 92/165/64 80/167/52 84/168/56 
f 84/168/56 80/167/52 79/169/51 82/170/54 
f 5/171/5 1/172/1 4/173/4 7/174/7 
f 7/174/7 4/173/4 15/175/15 9/176/9 
f 9/176/9 15/175/15 13/177/13 11/178/11 
# 142 polygons

