# 3ds Max Wavefront OBJ Exporter v0.97b - (c)2007 guruware
# File Created: 27.07.2019 17:50:32

#
# object level01_wall003
#

v  0.0000 7.5329 -0.3390
v  0.0000 7.5329 -9.7049
v  0.0000 10.0438 -9.7049
v  0.0000 10.0438 -0.3390
v  -0.2181 5.0219 -0.3390
v  -0.2181 5.0219 -9.7049
v  -0.2181 7.5329 -9.7049
v  -0.2181 7.5329 -0.3390
v  0.0000 10.0438 -0.0000
v  0.0000 7.5329 -0.0000
v  0.0000 2.5110 -0.0000
v  0.0000 0.0000 -0.0000
v  0.0000 0.0000 -0.3390
v  0.0000 2.5110 -0.3390
v  0.0000 2.5110 -9.7049
v  -0.2181 2.5110 -9.7049
v  -0.2181 2.5110 -0.3390
v  0.0000 5.0219 -0.0000
v  0.0000 5.0219 -0.3390
v  0.7793 5.6506 -3.2532
v  -0.4324 5.6506 -3.2532
v  -0.4324 4.6406 -3.2532
v  0.7793 4.6406 -3.2532
v  0.4161 10.0438 -3.2532
v  -0.4324 10.0438 -3.2532
v  -0.4324 8.6794 -3.2532
v  0.4161 8.6794 -3.2532
v  -0.4324 6.3235 -3.2532
v  0.7793 6.3235 -3.2532
v  -0.4324 0.0000 -3.2532
v  0.4161 0.0000 -3.2532
v  0.4161 1.6118 -3.2532
v  -0.4324 1.6118 -3.2532
v  -0.4324 3.9677 -3.2532
v  0.7793 3.9677 -3.2532
v  0.4161 0.0000 -4.1375
v  0.4161 1.6118 -4.1375
v  0.7793 3.9677 -4.1375
v  0.7793 4.6406 -4.1375
v  0.7793 5.6506 -4.1375
v  0.4161 8.6794 -4.1375
v  0.4161 10.0438 -4.1375
v  0.7793 6.3235 -4.1375
v  0.4161 0.0000 -5.9063
v  0.4161 1.6118 -5.9063
v  0.5498 4.6406 -4.1375
v  0.5498 5.6506 -4.1375
v  0.0000 0.0000 -9.7049
v  0.0000 7.5329 -10.0439
v  0.0000 10.0438 -10.0439
v  0.0000 0.0000 -10.0439
v  0.0000 2.5110 -10.0439
v  0.0000 5.0219 -9.7049
v  0.0000 5.0219 -10.0439
v  -0.4324 4.6406 -6.7907
v  -0.4324 5.6506 -6.7907
v  0.7793 5.6506 -6.7907
v  0.7793 4.6406 -6.7907
v  0.5498 5.6506 -5.9063
v  0.5498 4.6406 -5.9063
v  -0.4324 8.6794 -6.7907
v  -0.4324 10.0438 -6.7907
v  0.4161 10.0438 -6.7907
v  0.4161 8.6794 -6.7907
v  -0.4324 6.3235 -6.7907
v  0.7793 6.3235 -6.7907
v  0.4161 1.6118 -6.7907
v  0.4161 0.0000 -6.7907
v  -0.4324 0.0000 -6.7907
v  -0.4324 1.6118 -6.7907
v  -0.4324 3.9677 -6.7907
v  0.7793 3.9677 -6.7907
v  0.4161 10.0438 -5.9063
v  0.4161 8.6794 -5.9063
v  0.7793 6.3235 -5.9063
v  0.7793 3.9677 -5.9063
v  0.7793 5.6506 -5.9063
v  0.7793 4.6406 -5.9063
v  -0.7490 10.0438 -9.7049
v  -0.7490 10.0438 -0.3390
v  -0.7490 10.0438 -0.0000
v  -0.7490 7.5329 -0.0000
v  -0.7490 2.5110 -0.0000
v  -0.7490 0.0000 -0.0000
v  -0.7490 0.0000 -0.3390
v  -0.7490 5.0219 -0.0000
v  -0.7490 0.0000 -9.7049
v  -0.7490 7.5329 -10.0438
v  -0.7490 10.0438 -10.0438
v  -0.7490 0.0000 -10.0438
v  -0.7490 2.5110 -10.0438
v  -0.7490 5.0219 -10.0438
v  -0.7490 2.5110 -0.3390
v  -0.7490 5.0219 -0.3390
v  -0.7490 7.5329 -0.3390
v  -0.7490 2.5110 -9.7049
v  -0.7490 5.0219 -9.7049
v  -0.7490 7.5329 -9.7049
v  -0.4324 0.0000 -4.1375
v  -0.4324 10.0438 -4.1375
v  -0.4324 0.0000 -5.9063
v  -0.4324 10.0438 -5.9063
# 102 vertices

vn 0.9045 -0.3015 -0.3015
vn 0.9045 -0.3015 0.3015
vn 0.7071 0.7071 -0.0000
vn 0.7071 -0.0000 -0.7071
vn 0.7071 -0.0000 0.7071
vn 0.5774 -0.5774 0.5774
vn 0.5774 -0.5774 -0.5774
vn 0.5773 0.5774 0.5774
vn 0.7071 0.0000 0.7071
vn 0.7071 -0.7071 -0.0000
vn 0.9045 0.3015 -0.3015
vn 0.9045 0.3015 0.3015
vn 0.5774 0.5774 0.5774
vn 0.5774 0.5774 -0.5774
vn 0.7071 0.0000 -0.7071
vn 0.0000 0.0000 1.0000
vn 0.0000 0.7071 0.7071
vn 0.6870 0.0526 0.7247
vn 0.7214 0.0553 0.6903
vn 0.0000 -0.7071 0.7071
vn 0.6870 -0.0526 0.7247
vn 0.7214 -0.0553 0.6903
vn 0.9971 -0.0764 -0.0000
vn 0.9971 0.0764 -0.0000
vn 0.5773 0.5774 -0.5774
vn 0.0000 0.0000 -1.0000
vn 0.0000 0.7071 -0.7071
vn 0.6870 0.0526 -0.7247
vn 0.7214 0.0553 -0.6903
vn 0.6870 -0.0526 -0.7247
vn 0.0000 -0.7071 -0.7071
vn 0.7214 -0.0553 -0.6903
vn -0.7071 0.7071 -0.0000
vn -0.5774 0.5773 0.5773
vn -0.7071 0.0000 0.7071
vn -0.5774 -0.5774 0.5774
vn -0.7071 -0.7071 -0.0000
vn -0.7071 0.0000 -0.7071
vn -0.5774 0.5773 -0.5773
vn -0.5774 -0.5774 -0.5774
vn -1.0000 0.0000 -0.0000
vn 0.0000 -1.0000 -0.0000
vn -0.0000 1.0000 -0.0000
vn -0.0000 1.0000 0.0000
# 44 vertex normals

vt 0.3698 0.9162 0.0000
vt 0.6596 0.9162 0.0000
vt 0.6596 0.9939 0.0000
vt 0.3698 0.9939 0.0000
vt 0.3698 0.8318 0.0000
vt 0.6596 0.8318 0.0000
vt 0.6596 0.9095 0.0000
vt 0.3698 0.9095 0.0000
vt 0.3593 0.9939 0.0000
vt 0.3593 0.9162 0.0000
vt 0.3593 0.7473 0.0000
vt 0.3593 0.6697 0.0000
vt 0.3698 0.6697 0.0000
vt 0.3698 0.7473 0.0000
vt 0.6596 0.7473 0.0000
vt 0.6596 0.7541 0.0000
vt 0.3698 0.7541 0.0000
vt 0.3526 0.9095 0.0000
vt 0.3526 0.8318 0.0000
vt 0.3631 0.8318 0.0000
vt 0.3631 0.9095 0.0000
vt 0.3526 0.7541 0.0000
vt 0.3631 0.7541 0.0000
vt 0.8025 0.2460 0.0000
vt 0.7591 0.2460 0.0000
vt 0.7591 0.2027 0.0000
vt 0.8025 0.2027 0.0000
vt 0.8025 0.4333 0.0000
vt 0.7591 0.4333 0.0000
vt 0.7591 0.3758 0.0000
vt 0.8025 0.3758 0.0000
vt 0.7591 0.2752 0.0000
vt 0.8025 0.2752 0.0000
vt 0.7591 0.0050 0.0000
vt 0.8025 0.0050 0.0000
vt 0.8025 0.0730 0.0000
vt 0.7591 0.0730 0.0000
vt 0.7591 0.1735 0.0000
vt 0.8025 0.1735 0.0000
vt 0.8398 0.0050 0.0000
vt 0.8398 0.0730 0.0000
vt 0.8398 0.1735 0.0000
vt 0.8398 0.2027 0.0000
vt 0.8398 0.2460 0.0000
vt 0.8398 0.3758 0.0000
vt 0.8398 0.4333 0.0000
vt 0.8398 0.2752 0.0000
vt 0.9144 0.0050 0.0000
vt 0.9144 0.0730 0.0000
vt 0.0118 0.7687 0.0000
vt 0.0219 0.7687 0.0000
vt 0.0219 0.8132 0.0000
vt 0.0118 0.8132 0.0000
vt 0.6596 0.6697 0.0000
vt 0.6701 0.9162 0.0000
vt 0.6701 0.9939 0.0000
vt 0.6701 0.6697 0.0000
vt 0.6701 0.7473 0.0000
vt 0.6663 0.8318 0.0000
vt 0.6768 0.8318 0.0000
vt 0.6768 0.9095 0.0000
vt 0.6663 0.9095 0.0000
vt 0.6663 0.7541 0.0000
vt 0.6768 0.7541 0.0000
vt 0.9951 0.2027 0.0000
vt 0.9951 0.2460 0.0000
vt 0.9517 0.2460 0.0000
vt 0.9517 0.2027 0.0000
vt 0.0997 0.8132 0.0000
vt 0.0997 0.7687 0.0000
vt 0.9951 0.3758 0.0000
vt 0.9951 0.4333 0.0000
vt 0.9517 0.4333 0.0000
vt 0.9517 0.3758 0.0000
vt 0.9951 0.2752 0.0000
vt 0.9517 0.2752 0.0000
vt 0.9517 0.0730 0.0000
vt 0.9517 0.0050 0.0000
vt 0.9951 0.0050 0.0000
vt 0.9951 0.0730 0.0000
vt 0.9951 0.1735 0.0000
vt 0.9517 0.1735 0.0000
vt 0.9144 0.4333 0.0000
vt 0.9144 0.3758 0.0000
vt 0.9144 0.2752 0.0000
vt 0.9144 0.1735 0.0000
vt 0.9144 0.2460 0.0000
vt 0.9144 0.2027 0.0000
vt 0.0997 0.8233 0.0000
vt 0.0219 0.8233 0.0000
vt 0.1099 0.7687 0.0000
vt 0.1099 0.8132 0.0000
vt 0.0219 0.7586 0.0000
vt 0.0997 0.7586 0.0000
# 94 texture coords

o level01_wall003
g level01_wall003
s off
f 1/1/1 2/2/2 3/3/3 4/4/3 
f 5/5/4 6/6/5 7/7/6 8/8/7 
f 8/8/7 7/7/6 2/2/2 1/1/1 
f 9/9/8 10/10/9 1/1/1 4/4/3 
f 11/11/9 12/12/6 13/13/10 14/14/11 
f 15/15/12 16/16/13 17/17/14 14/14/11 
f 10/18/9 18/19/9 19/20/15 1/21/1 
f 18/19/9 11/22/9 14/23/11 19/20/15 
f 1/21/1 19/20/15 5/5/4 8/8/7 
f 19/20/15 14/23/11 17/17/14 5/5/4 
f 20/24/9 21/25/16 22/26/16 23/27/9 
f 24/28/13 25/29/17 26/30/16 27/31/18 
f 27/31/18 26/30/16 28/32/16 29/33/19 
f 30/34/20 31/35/6 32/36/21 33/37/16 
f 34/38/16 33/37/16 32/36/21 35/39/22 
f 31/35/6 36/40/10 37/41/23 32/36/21 
f 32/36/21 37/41/23 38/42/23 35/39/22 
f 29/33/19 28/32/16 21/25/16 20/24/9 
f 34/38/16 35/39/22 23/27/9 22/26/16 
f 35/39/22 38/42/23 39/43/11 23/27/9 
f 20/24/9 23/27/9 39/43/11 40/44/1 
f 24/28/13 27/31/18 41/45/24 42/46/3 
f 27/31/18 29/33/19 43/47/24 41/45/24 
f 44/48/10 45/49/23 37/41/23 36/40/10 
f 29/33/19 20/24/9 40/44/1 43/47/24 
f 39/50/11 46/51/14 47/52/7 40/53/1 
f 5/5/4 17/17/14 16/16/13 6/6/5 
f 14/14/11 13/13/10 48/54/10 15/15/12 
f 2/2/2 49/55/15 50/56/25 3/3/3 
f 48/54/10 51/57/7 52/58/15 15/15/12 
f 53/59/9 54/60/15 49/61/15 2/62/2 
f 15/63/12 52/64/15 54/60/15 53/59/9 
f 6/6/5 53/59/9 2/62/2 7/7/6 
f 16/16/13 15/63/12 53/59/9 6/6/5 
f 55/65/26 56/66/26 57/67/15 58/68/15 
f 59/69/6 47/52/7 46/51/14 60/70/13 
f 61/71/26 62/72/27 63/73/14 64/74/28 
f 65/75/26 61/71/26 64/74/28 66/76/29 
f 67/77/30 68/78/7 69/79/31 70/80/26 
f 71/81/26 72/82/32 67/77/30 70/80/26 
f 73/83/3 42/46/3 41/45/24 74/84/24 
f 74/84/24 41/45/24 43/47/24 75/85/24 
f 45/49/23 44/48/10 68/78/7 67/77/30 
f 76/86/23 45/49/23 67/77/30 72/82/32 
f 56/66/26 65/75/26 66/76/29 57/67/15 
f 58/68/15 72/82/32 71/81/26 55/65/26 
f 75/85/24 43/47/24 40/44/1 77/87/2 
f 78/88/12 76/86/23 72/82/32 58/68/15 
f 78/88/12 58/68/15 57/67/15 77/87/2 
f 74/84/24 64/74/28 63/73/14 73/83/3 
f 75/85/24 66/76/29 64/74/28 74/84/24 
f 76/86/23 38/42/23 37/41/23 45/49/23 
f 77/87/2 57/67/15 66/76/29 75/85/24 
f 78/88/12 39/43/11 38/42/23 76/86/23 
f 47/52/7 59/69/6 77/89/2 40/90/1 
f 59/69/6 60/70/13 78/91/12 77/92/2 
f 60/70/13 46/51/14 39/93/11 78/94/12 
f 4/4/3 3/3/3 79/3/33 80/4/33 
f 10/10/9 9/9/8 81/9/34 82/10/35 
f 9/9/8 4/4/3 80/4/33 81/9/34 
f 12/12/6 11/11/9 83/11/35 84/12/36 
f 13/13/10 12/12/6 84/12/36 85/13/37 
f 18/19/9 10/18/9 82/18/35 86/19/35 
f 11/22/9 18/19/9 86/19/35 83/22/35 
f 48/54/10 13/13/10 85/13/37 87/54/37 
f 50/56/25 49/55/15 88/55/38 89/56/39 
f 3/3/3 50/56/25 89/56/39 79/3/33 
f 51/57/7 48/54/10 87/54/37 90/57/40 
f 52/58/15 51/57/7 90/57/40 91/58/38 
f 49/61/15 54/60/15 92/60/38 88/61/38 
f 54/60/15 52/64/15 91/64/38 92/60/38 
s 1
f 85/20/37 84/61/36 83/1/35 93/63/41 
f 93/63/41 83/1/35 86/3/35 94/4/41 
f 94/4/41 86/3/35 82/9/35 95/10/41 
f 95/10/41 82/9/35 81/58/34 80/12/33 
f 87/21/37 85/20/37 93/63/41 96/11/41 
f 96/11/41 93/63/41 94/4/41 97/12/41 
f 97/12/41 94/4/41 95/10/41 98/13/41 
f 98/13/41 95/10/41 80/12/33 79/57/33 
f 90/59/40 87/21/37 96/11/41 91/18/38 
f 91/18/38 96/11/41 97/12/41 92/19/38 
f 92/19/38 97/12/41 98/13/41 88/22/38 
f 88/22/38 98/13/41 79/57/33 89/15/39 
s off
f 36/40/10 31/35/6 30/35/20 99/40/42 
f 24/28/13 42/46/3 100/46/43 25/28/17 
f 44/48/10 36/40/10 99/40/42 101/48/42 
f 42/46/3 73/83/3 102/83/44 100/46/43 
f 68/78/7 44/48/10 101/48/42 69/78/31 
f 73/83/3 63/73/14 62/73/27 102/83/44 
# 89 polygons

