# 3ds Max Wavefront OBJ Exporter v0.97b - (c)2007 guruware
# File Created: 27.07.2019 17:51:07

#
# object level01_marquee
#

v  0.3024 -0.8874 4.3154
v  -0.3024 -0.8874 4.3154
v  -0.3024 -0.8874 3.5919
v  0.3024 -0.8874 3.5919
v  -0.3024 0.8874 4.3154
v  0.3024 0.8874 4.3154
v  0.3024 0.8874 3.5919
v  -0.3024 0.8874 3.5919
v  0.3024 0.7031 4.3154
v  0.3024 0.7031 3.5919
v  0.3024 -0.7031 4.3154
v  0.3024 -0.7031 3.5919
v  -0.3024 0.7051 4.3154
v  -0.3024 0.7051 3.5919
v  -0.3024 -0.7051 3.5919
v  -0.3024 -0.7051 4.3154
v  0.1700 -0.6809 3.5919
v  0.1700 0.6809 3.5919
v  0.1700 -0.6809 -3.5919
v  0.1700 0.6809 -3.5919
v  0.3024 0.7031 -3.5919
v  -0.3024 0.7051 -3.5919
v  -0.3024 -0.7051 -3.5919
v  -0.3024 0.8874 -3.5919
v  -0.3024 -0.8874 -3.5919
v  0.3024 -0.8874 -3.5919
v  0.3024 0.8874 -3.5919
v  -0.3024 -0.8874 -4.3154
v  0.3024 -0.8874 -4.3154
v  0.3024 0.8874 -4.3154
v  -0.3024 0.8874 -4.3154
v  0.3024 0.7031 -4.3154
v  0.3024 -0.7031 -4.3154
v  0.3024 -0.7031 -3.5919
v  -0.3024 0.7051 -4.3154
v  -0.3024 -0.7051 -4.3154
# 36 vertices

vn 0.5774 -0.5774 0.5774
vn -0.5774 -0.5774 0.5774
vn -0.7071 -0.7071 -0.0000
vn 0.7071 -0.7071 -0.0000
vn -0.5774 0.5774 0.5774
vn 0.5774 0.5774 0.5774
vn 0.7071 0.7071 -0.0000
vn -0.7071 0.7071 -0.0000
vn 0.7071 0.0000 0.7071
vn 0.9218 -0.2872 -0.2604
vn 0.9218 0.2872 -0.2604
vn -0.7071 0.0000 0.7071
vn -1.0000 0.0000 -0.0000
vn 0.6182 0.5231 -0.5866
vn 0.6182 -0.5231 -0.5866
vn 0.6182 0.5231 0.5866
vn 0.6182 -0.5231 0.5866
vn 0.9218 -0.2872 0.2604
vn -0.5774 -0.5774 -0.5774
vn 0.5774 -0.5774 -0.5774
vn 0.5774 0.5774 -0.5774
vn -0.5774 0.5774 -0.5774
vn 0.7071 0.0000 -0.7071
vn 0.9218 0.2872 0.2604
vn -0.7071 0.0000 -0.7071
# 25 vertex normals

vt 0.3166 0.9709 0.0000
vt 0.3166 0.9912 0.0000
vt 0.2922 0.9912 0.0000
vt 0.2922 0.9709 0.0000
vt 0.3166 0.8907 0.0000
vt 0.3166 0.9111 0.0000
vt 0.2922 0.9111 0.0000
vt 0.2922 0.8907 0.0000
vt 0.3166 0.9173 0.0000
vt 0.2922 0.9173 0.0000
vt 0.3166 0.9647 0.0000
vt 0.2922 0.9647 0.0000
vt 0.3166 0.8846 0.0000
vt 0.2922 0.8846 0.0000
vt 0.2922 0.8371 0.0000
vt 0.3166 0.8371 0.0000
vt 0.3511 0.6202 0.0000
vt 0.3511 0.5305 0.0000
vt 0.3596 0.5305 0.0000
vt 0.3596 0.6202 0.0000
vt 0.8242 0.5305 0.0000
vt 0.8242 0.6202 0.0000
vt 0.8242 0.6285 0.0000
vt 0.3596 0.6285 0.0000
vt 0.0504 0.8846 0.0000
vt 0.0504 0.8371 0.0000
vt 0.2922 0.8310 0.0000
vt 0.3166 0.8310 0.0000
vt 0.0504 0.8907 0.0000
vt 0.0504 0.8310 0.0000
vt 0.3370 0.9709 0.0000
vt 0.3370 0.9647 0.0000
vt 0.3370 0.9173 0.0000
vt 0.3370 0.9111 0.0000
vt 0.0504 0.9709 0.0000
vt 0.0504 0.9912 0.0000
vt 0.0504 0.9111 0.0000
vt 0.0260 0.9912 0.0000
vt 0.0260 0.9709 0.0000
vt 0.0260 0.9111 0.0000
vt 0.0260 0.8907 0.0000
vt 0.0504 0.9173 0.0000
vt 0.0260 0.9173 0.0000
vt 0.0260 0.9647 0.0000
vt 0.0504 0.9647 0.0000
vt 0.0260 0.8846 0.0000
vt 0.0260 0.8371 0.0000
vt 0.8328 0.5305 0.0000
vt 0.8328 0.6202 0.0000
vt 0.3596 0.5221 0.0000
vt 0.8242 0.5221 0.0000
vt 0.0260 0.8310 0.0000
vt 0.0056 0.9709 0.0000
vt 0.0056 0.9647 0.0000
vt 0.0056 0.9173 0.0000
vt 0.0056 0.9111 0.0000
# 56 texture coords

o level01_marquee
g level01_marquee
s off
f 1/1/1 2/2/2 3/3/3 4/4/4 
f 5/5/5 6/6/6 7/7/7 8/8/8 
f 6/6/6 9/9/9 10/10/10 7/7/7 
f 11/11/9 1/1/1 4/4/4 12/12/11 
f 13/13/12 14/14/13 15/15/13 16/16/12 
f 9/9/9 11/11/9 12/12/11 10/10/10 
f 10/17/10 12/18/11 17/19/14 18/20/15 
f 17/19/14 19/21/16 20/22/17 18/20/15 
f 18/20/15 20/22/17 21/23/18 10/24/10 
f 14/14/13 22/25/13 23/26/13 15/15/13 
f 5/5/5 8/8/8 14/14/13 13/13/12 
f 3/27/3 2/28/2 16/16/12 15/15/13 
f 8/8/8 24/29/8 22/25/13 14/14/13 
f 25/30/3 3/27/3 15/15/13 23/26/13 
f 2/31/2 1/1/1 11/11/9 16/32/12 
f 16/32/12 11/11/9 9/9/9 13/33/12 
f 13/33/12 9/9/9 6/6/6 5/34/5 
f 26/35/4 4/4/4 3/3/3 25/36/3 
f 24/29/8 8/8/8 7/7/7 27/37/7 
f 25/36/3 28/38/19 29/39/20 26/35/4 
f 27/37/7 30/40/21 31/41/22 24/29/8 
f 21/42/18 32/43/23 30/40/21 27/37/7 
f 26/35/4 29/39/20 33/44/23 34/45/24 
f 23/26/13 22/25/13 35/46/25 36/47/25 
f 34/45/24 33/44/23 32/43/23 21/42/18 
f 19/21/16 34/48/24 21/49/18 20/22/17 
f 10/10/10 21/42/18 27/37/7 7/7/7 
f 4/4/4 26/35/4 34/45/24 12/12/11 
f 12/50/11 34/51/24 19/21/16 17/19/14 
f 22/25/13 24/29/8 31/41/22 35/46/25 
f 36/47/25 28/52/19 25/30/3 23/26/13 
f 33/44/23 29/39/20 28/53/19 36/54/25 
f 32/43/23 33/44/23 36/54/25 35/55/25 
f 30/40/21 32/43/23 35/55/25 31/56/22 
# 34 polygons

