# 3ds Max Wavefront OBJ Exporter v0.97b - (c)2007 guruware
# File Created: 27.07.2019 16:39:49

#
# object level01_floor
#

v  274.9685 -1.6495 -275.1422
v  25.0315 -1.6495 -275.1422
v  25.0315 -1.6495 -25.2053
v  274.9685 -1.6495 -25.2053
v  4.5970 -22.2118 -275.1422
v  4.5970 -22.2118 -25.2053
v  4.5970 -7.3183 -25.2053
v  4.5970 -7.3183 -275.1422
v  274.9685 -22.2118 -295.5768
v  25.0315 -22.2118 -295.5767
v  25.0315 -7.3183 -295.5767
v  274.9685 -7.3183 -295.5767
v  295.4030 -22.2118 -25.2053
v  295.4030 -22.2118 -275.1422
v  295.4030 -7.3183 -275.1422
v  295.4030 -7.3183 -25.2053
v  25.0299 -22.2118 -4.5970
v  274.9669 -22.2118 -4.7708
v  274.9669 -7.3183 -4.7708
v  25.0299 -7.3183 -4.5970
v  274.9685 -27.8806 -25.2053
v  25.0315 -27.8806 -25.2053
v  25.0315 -27.8806 -275.1422
v  274.9685 -27.8806 -275.1422
v  300.0000 0.0000 -275.1422
v  274.9685 0.0000 -275.1422
v  274.9685 0.0000 -25.2053
v  300.0000 0.0000 -25.2053
v  0.0000 0.0000 -25.2053
v  25.0315 0.0000 -25.2053
v  25.0315 0.0000 -275.1422
v  0.0000 0.0000 -275.1422
v  295.4030 -22.2118 -295.5767
v  295.4030 -7.3183 -295.5767
v  4.5970 -7.3183 -295.5767
v  4.5970 -22.2118 -295.5767
v  4.5970 -22.2118 -4.5970
v  4.5970 -7.3183 -4.5970
v  295.4030 -7.3183 -4.7708
v  295.4030 -22.2118 -4.7708
v  300.0000 -29.5301 -25.2053
v  274.9685 -29.5301 -25.2053
v  274.9685 -29.5301 -275.1422
v  300.0000 -29.5301 -275.1422
v  0.0000 -29.5301 -275.1422
v  25.0315 -29.5301 -275.1422
v  25.0315 -29.5301 -25.2053
v  0.0000 -29.5301 -25.2053
v  274.9685 0.0000 -300.1737
v  25.0315 0.0000 -300.1737
v  25.0315 0.0000 -0.0000
v  274.9685 0.0000 -0.1738
v  274.9685 -29.5301 -0.1738
v  25.0315 -29.5301 -0.0000
v  25.0315 -29.5301 -300.1737
v  274.9685 -29.5301 -300.1738
v  300.0000 0.0000 -300.1737
v  300.0000 0.0000 -0.1738
v  0.0000 0.0000 -0.0000
v  0.0000 0.0000 -300.1737
v  300.0000 -29.5301 -0.1738
v  300.0000 -29.5301 -300.1737
v  0.0000 -29.5301 -300.1738
v  0.0000 -29.5301 -0.0000
v  0.0000 -22.2118 -25.2053
v  0.0000 -22.2118 -275.1422
v  0.0000 -7.3183 -275.1422
v  0.0000 -7.3183 -25.2053
v  25.0315 -22.2118 -300.1737
v  274.9685 -22.2118 -300.1738
v  274.9685 -7.3183 -300.1737
v  25.0315 -7.3183 -300.1737
v  300.0000 -22.2118 -275.1422
v  300.0000 -22.2118 -25.2053
v  300.0000 -7.3183 -25.2053
v  300.0000 -7.3183 -275.1422
v  274.9685 -22.2118 -0.1738
v  25.0315 -22.2118 -0.0000
v  25.0315 -7.3183 -0.0000
v  274.9685 -7.3183 -0.1738
v  300.0000 -22.2118 -300.1737
v  300.0000 -7.3183 -300.1737
v  0.0000 -7.3183 -300.1737
v  0.0000 -22.2118 -300.1738
v  0.0000 -22.2118 -0.0000
v  0.0000 -7.3183 -0.0000
v  300.0000 -7.3183 -0.1738
v  300.0000 -22.2118 -0.1738
# 88 vertices

vn -0.5774 0.5774 0.5774
vn 0.5774 0.5774 0.5774
vn 0.5774 0.5774 -0.5774
vn -0.5774 0.5774 -0.5774
vn -0.7071 0.7071 -0.0000
vn -0.7071 -0.7071 -0.0000
vn 0.0000 0.7071 -0.7071
vn -0.0000 0.7071 -0.7071
vn 0.0000 -0.7071 -0.7071
vn 0.7071 0.7071 -0.0000
vn 0.7071 -0.7071 -0.0000
vn 0.0002 0.7072 0.7070
vn 0.0002 0.7070 0.7072
vn 0.0002 -0.7070 0.7072
vn 0.0002 -0.7072 0.7070
vn -0.5774 -0.5774 -0.5774
vn 0.5774 -0.5774 -0.5774
vn 0.5774 -0.5774 0.5774
vn -0.5774 -0.5774 0.5774
vn -0.3015 0.9045 0.3015
vn -0.3015 0.9045 -0.3015
vn 0.3015 0.9045 -0.3015
vn 0.3015 0.9045 0.3015
vn 0.3015 -0.9045 -0.3015
vn -0.3015 -0.9045 -0.3015
vn -0.3015 -0.9045 0.3015
vn 0.3015 -0.9045 0.3015
vn 0.5774 -0.5773 -0.5773
vn -0.5773 -0.5774 -0.5774
vn 0.5774 0.5774 -0.5773
vn -0.5773 0.5774 -0.5774
# 31 vertex normals

vt 0.0380 0.0389 0.0000
vt 0.3088 0.0389 0.0000
vt 0.3088 0.3097 0.0000
vt 0.0380 0.3097 0.0000
vt 0.4546 0.1327 0.0000
vt 0.4546 0.4142 0.0000
vt 0.4380 0.4142 0.0000
vt 0.4380 0.1327 0.0000
vt 0.3770 0.4142 0.0000
vt 0.3770 0.1327 0.0000
vt 0.3937 0.1327 0.0000
vt 0.3937 0.4142 0.0000
vt 0.5599 0.4142 0.0000
vt 0.5599 0.1327 0.0000
vt 0.5765 0.1327 0.0000
vt 0.5765 0.4142 0.0000
vt 0.4989 0.4142 0.0000
vt 0.4989 0.1327 0.0000
vt 0.5156 0.1327 0.0000
vt 0.5156 0.4142 0.0000
vt 0.3079 0.6568 0.0000
vt 0.0372 0.6568 0.0000
vt 0.0372 0.3862 0.0000
vt 0.3079 0.3862 0.0000
vt 0.0043 0.3797 0.0000
vt 0.0325 0.3797 0.0000
vt 0.0325 0.6615 0.0000
vt 0.0043 0.6615 0.0000
vt 0.3424 0.6615 0.0000
vt 0.3142 0.6615 0.0000
vt 0.3142 0.3797 0.0000
vt 0.3424 0.3797 0.0000
vt 0.3770 0.4406 0.0000
vt 0.3937 0.4406 0.0000
vt 0.3937 0.1063 0.0000
vt 0.3770 0.1063 0.0000
vt 0.4989 0.4406 0.0000
vt 0.5156 0.4406 0.0000
vt 0.5156 0.1063 0.0000
vt 0.4989 0.1063 0.0000
vt 0.3424 0.3142 0.0000
vt 0.3142 0.3142 0.0000
vt 0.3142 0.0325 0.0000
vt 0.3424 0.0325 0.0000
vt 0.0043 0.0325 0.0000
vt 0.0325 0.0325 0.0000
vt 0.0325 0.3142 0.0000
vt 0.0043 0.3142 0.0000
vt 0.0325 0.3515 0.0000
vt 0.3142 0.3515 0.0000
vt 0.3142 0.6898 0.0000
vt 0.0325 0.6898 0.0000
vt 0.4546 0.1063 0.0000
vt 0.4380 0.1063 0.0000
vt 0.4380 0.4408 0.0000
vt 0.4546 0.4408 0.0000
vt 0.5599 0.4406 0.0000
vt 0.5765 0.4406 0.0000
vt 0.5765 0.1063 0.0000
vt 0.5599 0.1063 0.0000
vt 0.3142 0.3425 0.0000
vt 0.0325 0.3425 0.0000
vt 0.0325 0.0043 0.0000
vt 0.3142 0.0043 0.0000
vt 0.0043 0.3515 0.0000
vt 0.0043 0.6898 0.0000
vt 0.3424 0.6898 0.0000
vt 0.3424 0.3515 0.0000
vt 0.3424 0.3425 0.0000
vt 0.3424 0.0043 0.0000
vt 0.0043 0.0043 0.0000
vt 0.0043 0.3425 0.0000
vt 0.0362 0.0389 0.0000
vt 0.0362 0.3097 0.0000
vt 0.3088 0.0371 0.0000
vt 0.0380 0.0371 0.0000
vt 0.3106 0.3097 0.0000
vt 0.3106 0.0389 0.0000
vt 0.0380 0.3115 0.0000
vt 0.3088 0.3115 0.0000
vt 0.3097 0.6568 0.0000
vt 0.3097 0.3862 0.0000
vt 0.0372 0.6587 0.0000
vt 0.3079 0.6587 0.0000
vt 0.0360 0.3849 0.0000
vt 0.0360 0.6568 0.0000
vt 0.3079 0.3849 0.0000
vt 0.4689 0.1327 0.0000
vt 0.4689 0.4142 0.0000
vt 0.4608 0.4142 0.0000
vt 0.4608 0.1327 0.0000
vt 0.4237 0.4142 0.0000
vt 0.4237 0.1327 0.0000
vt 0.4318 0.1327 0.0000
vt 0.4318 0.4142 0.0000
vt 0.3627 0.4142 0.0000
vt 0.3627 0.1327 0.0000
vt 0.3708 0.1327 0.0000
vt 0.3708 0.4142 0.0000
vt 0.4079 0.1327 0.0000
vt 0.4079 0.4142 0.0000
vt 0.3998 0.4142 0.0000
vt 0.3998 0.1327 0.0000
vt 0.5456 0.4142 0.0000
vt 0.5456 0.1327 0.0000
vt 0.5537 0.1327 0.0000
vt 0.5537 0.4142 0.0000
vt 0.5908 0.1327 0.0000
vt 0.5908 0.4142 0.0000
vt 0.5827 0.4142 0.0000
vt 0.5827 0.1327 0.0000
vt 0.4846 0.4142 0.0000
vt 0.4846 0.1327 0.0000
vt 0.4928 0.1327 0.0000
vt 0.4928 0.4142 0.0000
vt 0.5299 0.1327 0.0000
vt 0.5299 0.4142 0.0000
vt 0.5217 0.4142 0.0000
vt 0.5217 0.1327 0.0000
vt 0.3627 0.4406 0.0000
vt 0.3708 0.4406 0.0000
vt 0.4079 0.4406 0.0000
vt 0.3998 0.4406 0.0000
vt 0.4079 0.1063 0.0000
vt 0.3998 0.1063 0.0000
vt 0.3627 0.1063 0.0000
vt 0.3708 0.1063 0.0000
vt 0.4846 0.4406 0.0000
vt 0.4928 0.4406 0.0000
vt 0.5299 0.4406 0.0000
vt 0.5217 0.4406 0.0000
vt 0.5299 0.1063 0.0000
vt 0.5217 0.1063 0.0000
vt 0.4846 0.1063 0.0000
vt 0.4928 0.1063 0.0000
vt 0.4689 0.1063 0.0000
vt 0.4608 0.1063 0.0000
vt 0.4237 0.1063 0.0000
vt 0.4318 0.1063 0.0000
vt 0.4237 0.4408 0.0000
vt 0.4318 0.4408 0.0000
vt 0.4689 0.4408 0.0000
vt 0.4608 0.4408 0.0000
vt 0.5456 0.4406 0.0000
vt 0.5537 0.4406 0.0000
vt 0.5908 0.4406 0.0000
vt 0.5827 0.4406 0.0000
vt 0.5908 0.1063 0.0000
vt 0.5827 0.1063 0.0000
vt 0.5456 0.1063 0.0000
vt 0.5537 0.1063 0.0000
# 151 texture coords

o level01_floor
g level01_floor
s off
f 1/1/1 2/2/2 3/3/3 4/4/4 
f 5/5/5 6/6/5 7/7/6 8/8/6 
f 9/9/7 10/10/8 11/11/9 12/12/9 
f 13/13/10 14/14/10 15/15/11 16/16/11 
f 17/17/12 18/18/13 19/19/14 20/20/15 
f 21/21/16 22/22/17 23/23/18 24/24/19 
f 25/25/10 26/26/20 27/27/21 28/28/10 
f 29/29/5 30/30/22 31/31/23 32/32/5 
f 33/33/22 9/9/7 12/12/9 34/34/24 
f 35/35/25 11/11/9 10/10/8 36/36/21 
f 37/37/20 17/17/12 20/20/15 38/38/26 
f 39/39/27 19/19/14 18/18/13 40/40/23 
f 41/41/11 42/42/25 43/43/26 44/44/11 
f 45/45/6 46/46/27 47/47/24 48/48/6 
f 49/49/7 50/50/7 31/31/23 26/26/20 
f 51/51/13 52/52/12 27/27/21 30/30/22 
f 36/53/21 5/5/5 8/8/6 35/54/25 
f 38/55/26 7/7/6 6/6/5 37/56/20 
f 40/57/23 13/13/10 16/16/11 39/58/27 
f 34/59/24 15/15/11 14/14/10 33/60/22 
f 53/61/15 54/62/14 47/47/24 42/42/25 
f 55/63/9 56/64/9 43/43/26 46/46/27 
f 57/65/3 49/49/7 26/26/20 25/25/10 
f 52/52/12 58/66/2 28/28/10 27/27/21 
f 59/67/1 51/51/13 30/30/22 29/29/5 
f 50/50/7 60/68/4 32/32/5 31/31/23 
f 61/69/18 53/61/15 42/42/25 41/41/11 
f 56/64/9 62/70/28 44/44/11 43/43/26 
f 63/71/29 55/63/9 46/46/27 45/45/6 
f 54/62/14 64/72/19 48/48/6 47/47/24 
f 26/73/20 1/1/1 4/4/4 27/74/21 
f 31/75/23 2/2/2 1/1/1 26/76/20 
f 30/77/22 3/3/3 2/2/2 31/78/23 
f 27/79/21 4/4/4 3/3/3 30/80/22 
f 42/81/25 21/21/16 24/24/19 43/82/26 
f 47/83/24 22/22/17 21/21/16 42/84/25 
f 46/85/27 23/23/18 22/22/17 47/86/24 
f 43/87/26 24/24/19 23/23/18 46/85/27 
f 45/88/6 48/89/6 65/90/5 66/91/5 
f 29/92/5 32/93/5 67/94/6 68/95/6 
f 56/96/9 55/97/9 69/98/7 70/99/7 
f 50/100/7 49/101/7 71/102/9 72/103/9 
f 41/104/11 44/105/11 73/106/10 74/107/10 
f 25/108/10 28/109/10 75/110/11 76/111/11 
f 54/112/14 53/113/15 77/114/12 78/115/13 
f 52/116/12 51/117/13 79/118/14 80/119/15 
f 62/120/28 56/96/9 70/99/7 81/121/30 
f 49/101/7 57/122/3 82/123/17 71/102/9 
f 60/124/4 50/100/7 72/103/9 83/125/16 
f 55/97/9 63/126/29 84/127/31 69/98/7 
f 64/128/19 54/112/14 78/115/13 85/129/1 
f 51/117/13 59/130/1 86/131/19 79/118/14 
f 58/132/2 52/116/12 80/119/15 87/133/18 
f 53/113/15 61/134/18 88/135/2 77/114/12 
f 63/136/29 45/88/6 66/91/5 84/137/31 
f 32/93/5 60/138/4 83/139/16 67/94/6 
f 59/140/1 29/92/5 68/95/6 86/141/19 
f 48/89/6 64/142/19 85/143/1 65/90/5 
f 61/144/18 41/104/11 74/107/10 88/145/2 
f 28/109/10 58/146/2 87/147/18 75/110/11 
f 57/148/3 25/108/10 76/111/11 82/149/17 
f 44/105/11 62/150/28 81/151/30 73/106/10 
f 65/90/5 6/6/5 5/5/5 66/91/5 
f 65/90/5 85/143/1 37/56/20 6/6/5 
f 78/115/13 17/17/12 37/37/20 85/129/1 
f 77/114/12 18/18/13 17/17/12 78/115/13 
f 77/114/12 88/135/2 40/40/23 18/18/13 
f 74/107/10 13/13/10 40/57/23 88/145/2 
f 73/106/10 14/14/10 13/13/10 74/107/10 
f 73/106/10 81/151/30 33/60/22 14/14/10 
f 70/99/7 9/9/7 33/33/22 81/121/30 
f 69/98/7 10/10/8 9/9/7 70/99/7 
f 69/98/7 84/127/31 36/36/21 10/10/8 
f 66/91/5 5/5/5 36/53/21 84/137/31 
f 67/94/6 8/8/6 7/7/6 68/95/6 
f 67/94/6 83/139/16 35/54/25 8/8/6 
f 72/103/9 11/11/9 35/35/25 83/125/16 
f 71/102/9 12/12/9 11/11/9 72/103/9 
f 71/102/9 82/123/17 34/34/24 12/12/9 
f 76/111/11 15/15/11 34/59/24 82/149/17 
f 75/110/11 16/16/11 15/15/11 76/111/11 
f 75/110/11 87/147/18 39/58/27 16/16/11 
f 80/119/15 19/19/14 39/39/27 87/133/18 
f 79/118/14 20/20/15 19/19/14 80/119/15 
f 79/118/14 86/131/19 38/38/26 20/20/15 
f 68/95/6 7/7/6 38/55/26 86/141/19 
# 86 polygons

